<?xml version="1.0" encoding="UTF-8"?>
<svg id="Layer_2" data-name="Layer 2" xmlns="http://www.w3.org/2000/svg" viewBox="0 0 167.59 167.59">
  <defs>
    <style>
      .cls-1 {
        fill: #fff;
      }

      .cls-1, .cls-2 {
        stroke-width: 0px;
      }

      .cls-2 {
        fill: #4a54c2;
      }
    </style>
  </defs>
  <g id="Layer_1-2" data-name="Layer 1">
    <circle class="cls-2" cx="83.8" cy="83.8" r="83.8"/>
    <g>
      <path class="cls-1" d="M83.8,17.34c-36.7,0-66.46,29.75-66.46,66.46s29.76,66.45,66.46,66.45,66.45-29.75,66.45-66.45S120.5,17.34,83.8,17.34ZM83.8,142.96c-32.68,0-59.17-26.49-59.17-59.16s26.49-59.17,59.17-59.17,59.16,26.49,59.16,59.17-26.49,59.16-59.16,59.16Z"/>
      <path class="cls-1" d="M127.8,60.27l-9.69,5.6,5.81,10.06c.13.23.16.5.1.76-.07.25-.24.47-.47.6l-5.97,3.44c-.16.09-.33.14-.5.14-.34,0-.68-.18-.87-.5l-5.8-10.06-9.69,5.6c-.15.09-.33.14-.5.14-.09,0-.17-.02-.26-.04-.26-.07-.47-.23-.61-.46l-3.44-5.96c-.27-.48-.11-1.09.37-1.37l9.69-5.6-5.73-9.91c-.13-.23-.16-.51-.1-.76.07-.26.24-.48.47-.61l5.97-3.44c.16-.09.33-.13.5-.13.34,0,.68.18.87.5l5.72,9.91,9.69-5.6c.15-.09.33-.13.5-.13.09,0,.17.01.26.03.25.07.47.24.61.47l3.44,5.96c.27.47.11,1.09-.37,1.36Z"/>
      <path class="cls-1" d="M92.11,77.95c-6.23-10.78-14.23-16.25-23.8-16.25-5.51,0-11.54,1.87-17.92,5.55l-16.02,9.25c-.48.28-.64.89-.37,1.37l30.03,52.01c.19.32.53.5.87.5.17,0,.34-.04.5-.13l14.8-8.54c9.21-5.32,14.82-12.02,16.68-19.89,1.73-7.36.13-15.39-4.77-23.87ZM76.04,114.32l-7.4,4.27-22.55-39.07,7.96-4.6c4.95-2.86,9.17-4.24,12.9-4.24,6.52-.01,11.97,4.17,17.14,13.14,7.32,12.68,4.54,23.23-8.05,30.5Z"/>
    </g>
  </g>
</svg>